<!DOCTYPE svg PUBLIC "-//W3C//DTD SVG 1.1//EN" "http://www.w3.org/Graphics/SVG/1.1/DTD/svg11.dtd">
<!-- Uploaded to: SVG Repo, www.svgrepo.com, Transformed by: SVG Repo Mixer Tools -->
<svg fill="#000000" width="64px" height="64px" viewBox="0 -4 46 46" xmlns="http://www.w3.org/2000/svg">
<g id="SVGRepo_bgCarrier" stroke-width="0"/>
<g id="SVGRepo_tracerCarrier" stroke-linecap="round" stroke-linejoin="round"/>
<g id="SVGRepo_iconCarrier"> <path id="_10.Folder" data-name="10.Folder" d="M42,43H6a5,5,0,0,1-5-5V15a1,1,0,0,1,1-1H5V9A4,4,0,0,1,9,5H19a4,4,0,0,1,4,4v1H46a1,1,0,0,1,1,1V38A5,5,0,0,1,42,43ZM3,16V38H3a3,3,0,0,0,3,3H38.022A4.962,4.962,0,0,1,37,38V16Zm42-4H21V9a2,2,0,0,0-2-2H9A2,2,0,0,0,7,9v5H38a1,1,0,0,1,1,1h0V38a3,3,0,0,0,6,0Z" transform="translate(-1 -5)" fill-rule="evenodd"/> </g>
</svg>